<?xml version="1.0" encoding="us-ascii" standalone="no"?><svg xmlns="http://www.w3.org/2000/svg" xmlns:xlink="http://www.w3.org/1999/xlink" contentStyleType="text/css" height="743px" preserveAspectRatio="none" style="width:628px;height:743px;background:#FFFFFF;" version="1.1" viewBox="0 0 628 743" width="628px" zoomAndPan="magnify"><defs/><g><text fill="#000000" font-family="sans-serif" font-size="14" font-weight="bold" lengthAdjust="spacing" textLength="569" x="28" y="28.5352">0xf27bc88216c8b0a1d1df59d672d7c7d3cef6d730ba3883980f73dbb09d0d314e</text><text fill="#000000" font-family="sans-serif" font-size="14" lengthAdjust="spacing" textLength="388" x="118.5" y="731.1191">sepolia, block 5835561, Sat, 04 May 2024 14:19:24 GMT</text><rect fill="#FFFFFF" height="118.5527" style="stroke:#181818;stroke-width:1.0;" width="10" x="276" y="324.5703"/><rect fill="#FFFFFF" height="29.3105" style="stroke:#181818;stroke-width:1.0;" width="10" x="521" y="384.502"/><line style="stroke:#181818;stroke-width:0.5;stroke-dasharray:5.0,5.0;" x1="110" x2="110" y1="135.4648" y2="623.6074"/><line style="stroke:#181818;stroke-width:0.5;stroke-dasharray:5.0,5.0;" x1="281" x2="281" y1="135.4648" y2="623.6074"/><line style="stroke:#181818;stroke-width:0.5;stroke-dasharray:5.0,5.0;" x1="525.5" x2="525.5" y1="135.4648" y2="623.6074"/><text fill="#000000" font-family="sans-serif" font-size="14" font-style="italic" lengthAdjust="spacing" textLength="143" x="36" y="116.0234">&#171;MetaMultiSigWallet&#187;</text><text fill="#000000" font-family="sans-serif" font-size="14" lengthAdjust="spacing" textLength="91" x="62" y="132.5117">0xf1bd..a51c</text><ellipse cx="110.5" cy="50.9883" fill="#E2E2F0" rx="8" ry="8" style="stroke:#181818;stroke-width:0.5;"/><path d="M110.5,58.9883 L110.5,85.9883 M97.5,66.9883 L123.5,66.9883 M110.5,85.9883 L97.5,100.9883 M110.5,85.9883 L123.5,100.9883 " fill="none" style="stroke:#181818;stroke-width:0.5;"/><text fill="#000000" font-family="sans-serif" font-size="14" font-style="italic" lengthAdjust="spacing" textLength="143" x="36" y="636.1426">&#171;MetaMultiSigWallet&#187;</text><text fill="#000000" font-family="sans-serif" font-size="14" lengthAdjust="spacing" textLength="91" x="62" y="652.6309">0xf1bd..a51c</text><ellipse cx="110.5" cy="664.084" fill="#E2E2F0" rx="8" ry="8" style="stroke:#181818;stroke-width:0.5;"/><path d="M110.5,672.084 L110.5,699.084 M97.5,680.084 L123.5,680.084 M110.5,699.084 L97.5,714.084 M110.5,699.084 L123.5,714.084 " fill="none" style="stroke:#181818;stroke-width:0.5;"/><rect fill="#E2E2F0" height="46.9766" rx="2.5" ry="2.5" style="stroke:#181818;stroke-width:0.5;" width="172" x="195" y="87.4883"/><text fill="#000000" font-family="sans-serif" font-size="14" font-style="italic" lengthAdjust="spacing" textLength="158" x="202" y="108.0234">&#171;ElectoralCommission&#187;</text><text fill="#000000" font-family="sans-serif" font-size="14" lengthAdjust="spacing" textLength="92" x="235" y="124.5117">0xb149..f0cb</text><rect fill="#E2E2F0" height="46.9766" rx="2.5" ry="2.5" style="stroke:#181818;stroke-width:0.5;" width="172" x="195" y="622.6074"/><text fill="#000000" font-family="sans-serif" font-size="14" font-style="italic" lengthAdjust="spacing" textLength="158" x="202" y="643.1426">&#171;ElectoralCommission&#187;</text><text fill="#000000" font-family="sans-serif" font-size="14" lengthAdjust="spacing" textLength="92" x="235" y="659.6309">0xb149..f0cb</text><rect fill="#E2E2F0" height="46.9766" rx="2.5" ry="2.5" style="stroke:#181818;stroke-width:0.5;" width="109" x="471.5" y="87.4883"/><text fill="#000000" font-family="sans-serif" font-size="14" font-style="italic" lengthAdjust="spacing" textLength="92" x="480" y="108.0234">&#171;Semaphore&#187;</text><text fill="#000000" font-family="sans-serif" font-size="14" lengthAdjust="spacing" textLength="95" x="478.5" y="124.5117">0x0a09..c774</text><rect fill="#E2E2F0" height="46.9766" rx="2.5" ry="2.5" style="stroke:#181818;stroke-width:0.5;" width="109" x="471.5" y="622.6074"/><text fill="#000000" font-family="sans-serif" font-size="14" font-style="italic" lengthAdjust="spacing" textLength="92" x="480" y="643.1426">&#171;Semaphore&#187;</text><text fill="#000000" font-family="sans-serif" font-size="14" lengthAdjust="spacing" textLength="95" x="478.5" y="659.6309">0x0a09..c774</text><rect fill="#FFFFFF" height="118.5527" style="stroke:#181818;stroke-width:1.0;" width="10" x="276" y="324.5703"/><rect fill="#FFFFFF" height="29.3105" style="stroke:#181818;stroke-width:1.0;" width="10" x="521" y="384.502"/><path d="M5,150.4648 L5,267.4648 L217,267.4648 L217,160.4648 L207,150.4648 L5,150.4648 " fill="#FEFFDD" style="stroke:#181818;stroke-width:0.5;"/><path d="M207,150.4648 L207,160.4648 L217,160.4648 L207,150.4648 " fill="#FEFFDD" style="stroke:#181818;stroke-width:0.5;"/><text fill="#000000" font-family="sans-serif" font-size="13" lengthAdjust="spacing" textLength="72" x="11" y="168.0332">Nonce: 272</text><text fill="#000000" font-family="sans-serif" font-size="13" lengthAdjust="spacing" textLength="191" x="11" y="183.3438">Gas Price: 68.932473158 Gwei</text><text fill="#000000" font-family="sans-serif" font-size="13" lengthAdjust="spacing" textLength="185" x="11" y="198.6543">Max Fee: 98.148656524 Gwei</text><text fill="#000000" font-family="sans-serif" font-size="13" lengthAdjust="spacing" textLength="137" x="11" y="213.9648">Max Priority: 3.0 Gwei</text><text fill="#000000" font-family="sans-serif" font-size="13" lengthAdjust="spacing" textLength="119" x="11" y="229.2754">Gas Limit: 155,751</text><text fill="#000000" font-family="sans-serif" font-size="13" lengthAdjust="spacing" textLength="118" x="11" y="244.5859">Gas Used: 106,497</text><text fill="#000000" font-family="sans-serif" font-size="13" lengthAdjust="spacing" textLength="114" x="11" y="259.8965">Tx Fee: 0.007 ETH</text><polygon fill="#181818" points="264,320.5703,274,324.5703,264,328.5703,268,324.5703" style="stroke:#181818;stroke-width:1.0;"/><line style="stroke:#181818;stroke-width:1.0;" x1="110.5" x2="270" y1="324.5703" y2="324.5703"/><text fill="#000000" font-family="sans-serif" font-size="13" lengthAdjust="spacing" textLength="104" x="117.5" y="289.207">createElectorate(</text><text fill="#000000" font-family="sans-serif" font-size="13" lengthAdjust="spacing" textLength="118" x="125.5" y="304.5176">electorate: Sydney)</text><text fill="#000000" font-family="sans-serif" font-size="13" lengthAdjust="spacing" textLength="78" x="117.5" y="319.8281">106,497 gas</text><polygon fill="#181818" points="509,380.502,519,384.502,509,388.502,513,384.502" style="stroke:#181818;stroke-width:1.0;"/><line style="stroke:#181818;stroke-width:1.0;" x1="286" x2="515" y1="384.502" y2="384.502"/><text fill="#000000" font-family="sans-serif" font-size="13" lengthAdjust="spacing" textLength="80" x="293" y="349.1387">createGroup(</text><text fill="#000000" font-family="sans-serif" font-size="13" lengthAdjust="spacing" textLength="138" x="301" y="364.4492">admin: 0xB149..F0Cb)</text><text fill="#000000" font-family="sans-serif" font-size="13" lengthAdjust="spacing" textLength="70" x="293" y="379.7598">53,469 gas</text><polygon fill="#181818" points="297,409.8125,287,413.8125,297,417.8125,293,413.8125" style="stroke:#181818;stroke-width:1.0;"/><line style="stroke:#181818;stroke-width:1.0;stroke-dasharray:2.0,2.0;" x1="291" x2="525" y1="413.8125" y2="413.8125"/><text fill="#000000" font-family="sans-serif" font-size="13" lengthAdjust="spacing" textLength="73" x="303" y="409.0703">groupId: 93</text><polygon fill="#181818" points="121.5,439.123,111.5,443.123,121.5,447.123,117.5,443.123" style="stroke:#181818;stroke-width:1.0;"/><line style="stroke:#181818;stroke-width:1.0;stroke-dasharray:2.0,2.0;" x1="115.5" x2="280" y1="443.123" y2="443.123"/><text fill="#000000" font-family="sans-serif" font-size="13" lengthAdjust="spacing" textLength="73" x="127.5" y="438.3809">groupId: 93</text><path d="M286,456.123 L286,496.123 L377,496.123 L377,466.123 L367,456.123 L286,456.123 " fill="#FEFFDD" style="stroke:#181818;stroke-width:0.5;"/><path d="M367,456.123 L367,466.123 L377,466.123 L367,456.123 " fill="#FEFFDD" style="stroke:#181818;stroke-width:0.5;"/><text fill="#000000" font-family="sans-serif" font-size="13" lengthAdjust="spacing" textLength="4" x="292" y="473.6914">&#160;</text><text fill="#000000" font-family="sans-serif" font-size="13" lengthAdjust="spacing" textLength="70" x="292" y="489.002">53,028 gas</text><path d="M141,506.7441 L141,561.7441 L421,561.7441 L421,516.7441 L411,506.7441 L141,506.7441 " fill="#00FFFF" style="stroke:#181818;stroke-width:0.5;"/><path d="M411,506.7441 L411,516.7441 L421,516.7441 L411,506.7441 " fill="#00FFFF" style="stroke:#181818;stroke-width:0.5;"/><text fill="#000000" font-family="sans-serif" font-size="13" lengthAdjust="spacing" textLength="114" x="147" y="524.3125">ElectorateCreated:</text><text fill="#000000" font-family="sans-serif" font-size="13" lengthAdjust="spacing" textLength="251" x="155" y="539.623">electorateHash: 0x69ed05f7..0b0c4c3a,</text><text fill="#000000" font-family="sans-serif" font-size="13" lengthAdjust="spacing" textLength="73" x="155" y="554.9336">groupId: 93</text><path d="M431,506.7441 L431,607.7441 L621,607.7441 L621,516.7441 L611,506.7441 L431,506.7441 " fill="#00FFFF" style="stroke:#181818;stroke-width:0.5;"/><path d="M611,506.7441 L611,516.7441 L621,516.7441 L611,506.7441 " fill="#00FFFF" style="stroke:#181818;stroke-width:0.5;"/><text fill="#000000" font-family="sans-serif" font-size="13" lengthAdjust="spacing" textLength="90" x="437" y="524.3125">GroupCreated:</text><text fill="#000000" font-family="sans-serif" font-size="13" lengthAdjust="spacing" textLength="73" x="445" y="539.623">groupId: 93</text><text fill="#000000" font-family="sans-serif" font-size="13" lengthAdjust="spacing" textLength="135" x="437" y="554.9336">GroupAdminUpdated:</text><text fill="#000000" font-family="sans-serif" font-size="13" lengthAdjust="spacing" textLength="77" x="445" y="570.2441">groupId: 93,</text><text fill="#000000" font-family="sans-serif" font-size="13" lengthAdjust="spacing" textLength="161" x="445" y="585.5547">oldAdmin: 0x0000..0000,</text><text fill="#000000" font-family="sans-serif" font-size="13" lengthAdjust="spacing" textLength="161" x="445" y="600.8652">newAdmin: 0xB149..F0Cb</text><!--SRC=[RLBHRfim57ttLrnrBvl4c8qn1bH5og8sdRHCav9gBtqnjaci4Sp0QPk_hqqRagdr4-TUdtEFpyKPrsZ0ptN2Avdd2SbaNc51554rArJ64yKbLrJgEbESuahGFAT5ZcjELLNXGc55IQeHag9pnhOmwCusHaHGDLR-1PPJnZ8ImLgu270AAt6412SfaBGaHUa_bgiD4jBP7gwy4LAfE1QCo2iG0mGO05nVhxGJgqFZpDfi_uYcqMusGvtedP6c4wqBx8gaHHpNM5OZEy00FFkcqM64Q1PslpV3uAs-fsE1FLrodexq00FmzBNUYsvdU-r9gBLEWttK_MGF_RAjr2KaF45Bp_pTcm2pF2vead9AM0xB9stGIZp3hVQj8ez9ccSiOo61KylpR6_SiGGQuzToaFjfziQLG1YBE2DZwNxGobTm5gK5HvitLHnZpE5cSuTqgo3uH6YAyEji2gG4sMlXz2aLfpy_j01wWYMiZwhLnoyFxTiCs8eXhCay-lOaXAQ8lVefhvFwihU7RXGMQczQR-_v-xYWMxoel3AZKPeL_mkVD52ltQ5lOHiqVlYd5lIZqhYAtcnt3cnzyRnH72VvA7wniCdk9_7l8D3v_OlHiIhHPGftOjW5rrcX5MOrZsDSOPbAAY9_xzB7EUvlS9us_K2lqyOyBWPT2eozUOZflbCVN0W3RQFcfo2nFzwEFw7JwgVv-uZFhbu0]--></g></svg>